<?xml version="1.0" encoding="utf-8"?>
<!-- Generator: Adobe Illustrator 15.0.2, SVG Export Plug-In . SVG Version: 6.00 Build 0)  -->
<!DOCTYPE svg PUBLIC "-//W3C//DTD SVG 1.1//EN" "http://www.w3.org/Graphics/SVG/1.1/DTD/svg11.dtd">
<svg version="1.1" xmlns="http://www.w3.org/2000/svg" xmlns:xlink="http://www.w3.org/1999/xlink" x="0px" y="0px" width="42px"
	 height="42px" viewBox="0 0 42 42" style="enable-background:new 0 0 42 42;" xml:space="preserve">
<style type="text/css">
<![CDATA[
	.st0{fill:none;stroke:#9E1847;stroke-width:2;stroke-miterlimit:10;}
	.st1{fill:none;stroke:#9E1847;stroke-width:2;stroke-miterlimit:15;}
	.st2{fill:none;stroke:#FFFFFF;stroke-width:2;stroke-miterlimit:10;}
	.st3{fill:none;stroke:#FFFFFF;stroke-width:2;stroke-miterlimit:15;}
	.st4{fill:#FFFFFF;}
]]>
</style>
<g id="Radio_button">
	<circle id="Outline" class="st0" cx="10" cy="10" r="7.5"/>
	<circle id="Outline_1_" class="st2" cx="10" cy="30" r="7.5"/>
	<circle id="Checked" class="st4" cx="10" cy="30" r="4.5"/>
</g>
<g id="Checkbox">
	<g id="Outline_2_">
		<path class="st1" d="M23,16c0,1.1,0.9,2,2,2h12c1.1,0,2-0.9,2-2V4c0-1.1-0.9-2-2-2H25c-1.1,0-2,0.9-2,2V16z"/>
	</g>
	<g id="Outline_3_">
		<path class="st3" d="M39,24c0-1.1-0.9-2-2-2H25c-1.1,0-2,0.9-2,2v12c0,1.1,0.9,2,2,2h12c1.1,0,2-0.9,2-2V24z"/>
	</g>
	<g id="Checked_1_">
		<path class="st4" d="M26,34c0,0.6,0.4,1,1,1h8c0.6,0,1-0.4,1-1v-8c0-0.6-0.4-1-1-1h-8c-0.6,0-1,0.4-1,1V34z"/>
	</g>
</g>
</svg>
